<?xml version="1.0" encoding="utf-8"?>
<!-- Generator: Adobe Illustrator 21.1.0, SVG Export Plug-In . SVG Version: 6.00 Build 0)  -->
<svg version="1.1" id="Layer_1" xmlns="http://www.w3.org/2000/svg" xmlns:xlink="http://www.w3.org/1999/xlink" x="0px" y="0px"
	 viewBox="0 0 420.7 262.7" style="enable-background:new 0 0 420.7 262.7;" xml:space="preserve">
<style type="text/css">
	.st0{fill:none;stroke:#221F1F;stroke-linejoin:round;stroke-miterlimit:10;}
	.st1{fill:none;stroke:#221F1F;stroke-width:0.5;stroke-linejoin:round;stroke-miterlimit:10;}
	.st2{fill:none;stroke:#221F1F;stroke-linecap:round;stroke-linejoin:round;stroke-miterlimit:10;}
</style>
<g>
	<polygon class="st0" points="298.1,49.6 115.5,145 50.5,107.3 233.2,14.9 	"/>
	<path class="st0" d="M250.4,150.6L250.4,150.6l-2.7-1.7c-0.2-1.1-0.4-2.1-0.8-3c0.1,0.1,0.3,0.2,0.4,0.3
		C248.8,147.2,249.9,148.9,250.4,150.6L250.4,150.6z"/>
	<path class="st0" d="M239.7,148.6c1.7,1.1,2.7,3.2,2.7,6.3c0,6.3-4.4,13.9-9.9,17.1c-2.5,1.4-4.7,1.7-6.4,1c-0.4-0.1-0.7-0.3-1-0.6
		c-0.8-0.6-1.5-1.5-1.9-2.7c-0.1-0.3-0.2-0.6-0.2-0.9c0.5-0.3,0.9-0.5,1.1-0.6c0.2-0.1,0.2-0.4,0.2-0.7c0.8-4.5,2.5-8.9,5-12.7
		c1.7-2.6,3.9-5,6.5-6.8c0,0,0,0,0.1,0c1.3-0.2,2.5-0.1,3.5,0.4L239.7,148.6L239.7,148.6z M236.9,158c0-1.3-0.5-2.3-1.2-2.8h0
		l-0.1-0.1c-0.4-0.2-1-0.3-1.5-0.2c-0.5,0.1-0.9,0.2-1.4,0.5c-2.4,1.4-4.3,4.7-4.3,7.5c0,0.6,0.1,1.1,0.2,1.5
		c0.2,0.5,0.5,0.9,0.8,1.2c0.1,0.1,0.3,0.2,0.4,0.3c0.7,0.3,1.7,0.2,2.8-0.4C235,164.1,236.9,160.8,236.9,158z"/>
	<path class="st0" d="M217.1,172.1l-3.5-2.2c0-1.6-0.2-3.1-0.6-4.3c1.4,1,2.5,2.5,3.3,4.2C216.7,170.5,216.9,171.3,217.1,172.1z"/>
	<path class="st0" d="M205.5,167c1.7,1.1,2.7,3.2,2.7,6.3c0,6.3-4.4,13.9-9.9,17.1c-2.5,1.4-4.7,1.7-6.4,1c-0.4-0.1-0.7-0.3-1-0.6
		c-0.8-0.6-1.5-1.5-1.9-2.7c-0.1-0.3-0.2-0.6-0.3-0.9c2.7-1.6,4.2-2.5,4.3-2.5c0.4-0.2,0.3-0.6,0.4-1c0.2-0.9,0.4-1.9,0.7-2.8
		c0,0.2,0,0.4,0,0.7c0,0.6,0.1,1.1,0.2,1.5c0.2,0.5,0.5,0.9,0.8,1.2c0.1,0.1,0.3,0.2,0.4,0.3c0.8,0.3,1.7,0.2,2.8-0.4
		c2.4-1.4,4.3-4.7,4.3-7.5c0-1.3-0.4-2.3-1.2-2.8l0,0l-0.1-0.1c-0.4-0.2-1-0.3-1.5-0.2c-0.4,0.1-0.9,0.2-1.4,0.5
		c-1,0.6-2,1.6-2.8,2.7c1-2.3,2.4-4.4,4-6.3c1.2-1.4,2.8-2.9,4.5-4c0.4,0.1,0.7,0.2,1.1,0.4L205.5,167L205.5,167z"/>
	<path class="st0" d="M172.1,182.8v14.2c-0.5,0.3-1,0.6-1.6,0.9v0v-10.9l-3.1-1.5L172.1,182.8z"/>
	<polygon class="st0" points="170.5,186.9 125,212.4 124.9,206.7 126.5,207.9 126.5,208.3 126.8,208.1 167.5,185.4 	"/>
	<g>
		<polygon class="st0" points="126.2,186 126.4,186.4 126.4,189.8 298.3,96.8 298.3,92.8 		"/>
		<polygon class="st0" points="293.6,72 284.5,76.9 284.5,84.9 293.4,80.1 		"/>
		<polygon class="st0" points="280.8,78.9 267.5,86.1 267.5,94.1 280.8,87 		"/>
		<polygon class="st0" points="263.8,88.1 250.7,95.2 250.7,103.3 263.8,96.2 		"/>
		<polygon class="st0" points="246.9,97.2 234.6,103.9 234.6,112 246.9,105.3 		"/>
		<polygon class="st0" points="230.9,105.9 219.1,112.3 219.1,120.4 230.9,114 		"/>
		<polygon class="st0" points="215.4,114.3 202.2,121.4 202.2,129.6 215.4,122.4 		"/>
		<polygon class="st0" points="198.4,123.4 185,130.7 185,138.9 198.4,131.6 		"/>
		<polygon class="st0" points="181.2,132.7 168.7,139.5 168.7,147.7 181.2,140.9 		"/>
		<polygon class="st0" points="165,141.5 152.5,148.2 152.5,156.5 165,149.7 		"/>
		<polygon class="st0" points="145.5,160.3 148.8,158.5 148.8,150.2 145.5,152 145.5,145.9 129.7,166.1 145.5,166.7 		"/>
	</g>
	<g>
		<path class="st0" d="M283.8,116.4l14.5-7.3l0-2.7l0-9.7l-171.8,93.1l0.1,18.1v0.4l0.3-0.1l40.6-22.7l4.6-2.6v14.2
			c2.4-1.4,4.7-2.8,6.9-4c1.5-0.9,2.9-1.7,4.1-2.4c2.2-1.3,4-2.4,5.6-3.3c2.7-1.6,4.2-2.5,4.3-2.5c0.4-0.2,0.3-0.6,0.4-1
			c0.2-0.9,0.4-1.9,0.7-2.8c0.4-1.4,0.9-2.8,1.5-4.1c1-2.3,2.4-4.4,4-6.3c1.2-1.4,2.8-2.9,4.5-4c0.7-0.5,1.4-0.9,2.2-1.2
			c0.5-0.2,1.1-0.4,1.6-0.5c0.3-0.1,0.6-0.1,0.9-0.2c1.7-0.2,3.2,0.2,4.4,1c1.4,1,2.5,2.5,3.3,4.2c0.3,0.7,0.6,1.5,0.8,2.3
			c0.1,0,0.1-0.1,0.2-0.1c1.3-0.8,4-2.3,5.6-3.2c0.5-0.3,0.9-0.5,1.1-0.6c0.2-0.1,0.2-0.4,0.2-0.7c0.8-4.5,2.5-8.9,5-12.7
			c1.7-2.6,3.9-5,6.5-6.8c1.4-1,2.9-1.8,4.4-2.4c0.5-0.2,1-0.3,1.5-0.4c1.8-0.4,3.6-0.2,5.2,0.8c0.1,0.1,0.3,0.2,0.4,0.3
			c1.4,1,2.6,2.7,3.1,4.3v0l35.1-20.7l-1.1-0.6L283.8,116.4z"/>
		<path class="st0" d="M298.3,92.8l-0.1-43.2L115.5,145l0.1,47.3l0.1,0l5.6-3.1l5.1-2.9l-0.2-0.4L298.3,92.8z M293.6,72l-0.2,8.1
			l-8.8,4.8v-8L293.6,72z M280.8,78.9v8l-13.3,7.2v-8L280.8,78.9z M263.8,88.1v8l-13.1,7.1v-8.1L263.8,88.1z M246.9,97.2v8.1
			l-12.3,6.7v-8.1L246.9,97.2z M230.9,105.9v8.1l-11.8,6.4v-8.1L230.9,105.9z M215.4,114.3v8.1l-13.2,7.2v-8.1L215.4,114.3z
			 M198.4,123.4v8.2l-13.5,7.3v-8.2L198.4,123.4z M181.2,132.7v8.2l-12.5,6.8v-8.2L181.2,132.7z M165,141.5v8.2l-12.4,6.7v-8.2
			L165,141.5z M145.5,145.9v6.1l3.3-1.8v8.2l-3.3,1.8v6.5l-15.8-0.6L145.5,145.9z"/>
	</g>
	<polygon class="st0" points="124.9,190.6 124.9,190.9 124.5,190.7 	"/>
	<polygon class="st0" points="126.4,189.8 126.4,186.4 121.3,189.3 115.7,192.4 115.6,192.4 115.6,195.7 124.5,190.7 124.9,190.6 
		124.9,190.9 124.9,206.7 126.5,207.9 	"/>
	<polygon class="st0" points="115.6,195.7 115.7,215.3 105.3,209.2 106.2,208.7 109.4,206.9 109.3,199.7 109.3,192.1 	"/>
	<polygon class="st0" points="115.7,215.3 108.7,219.3 98.3,213.2 98.8,213 105.3,209.2 	"/>
	<polygon class="st0" points="115.6,192.4 115.6,195.7 109.3,192.1 109.3,188.6 	"/>
	<polygon class="st0" points="115.5,145 115.6,192.4 109.3,188.6 109.3,185.5 109.2,163.2 109.2,159.2 109.2,159.1 107.3,154.7 
		57.8,126 50.6,130.2 50.5,107.3 	"/>
	<path class="st0" d="M108.7,219.3l0.1,14.9l-2.4-1.4c0-0.3,0-0.7,0-1c0-4.7-1.6-8.1-4.2-9.8l-0.1,0l-0.5-0.3l-8.3-4.8
		c-0.2-0.2-0.4-0.3-0.6-0.4l5.6-3.2L108.7,219.3z"/>
	<polygon class="st0" points="107.3,154.7 103.6,156.9 72.7,174.7 72.7,177.8 69.6,179.6 75,176.8 106.7,160.4 109.2,159.1 	"/>
	<g>
		<path class="st0" d="M247.7,148.9c-0.2-1.1-0.4-2.1-0.8-3c-1.6-1-3.4-1.1-5.2-0.8c-0.5,0.1-1,0.2-1.5,0.4
			c-1.6,0.6-3.1,1.4-4.4,2.4c0,0,0,0,0.1,0c1.3-0.2,2.5-0.1,3.5,0.4l0.3,0.2l0.1,0c1.7,1.1,2.7,3.2,2.7,6.3c0,6.3-4.4,13.9-9.9,17.1
			c-2.5,1.4-4.7,1.7-6.4,1c-0.4-0.1-0.7-0.3-1-0.6c-0.8-0.6-1.5-1.5-1.9-2.7c-0.1-0.3-0.2-0.6-0.2-0.9c-1.6,0.9-4.3,2.5-5.6,3.2
			c0.1,1,0.4,1.9,0.7,2.7c0.6,1.8,1.6,3.2,2.9,4.1c0.5,0.4,1,0.7,1.6,0.9c2.7,1.1,6.2,0.7,10-1.5c8.5-4.9,15.4-16.8,15.4-26.6
			C247.9,150.7,247.9,149.8,247.7,148.9z"/>
		<path class="st0" d="M208.7,164.6c-0.3,0-0.6,0.1-0.9,0.2c-0.5,0.1-1.1,0.3-1.6,0.5c-0.8,0.3-1.5,0.7-2.2,1.2
			c0.4,0.1,0.7,0.2,1.1,0.4l0.3,0.2l0.1,0c1.7,1.1,2.7,3.2,2.7,6.3c0,6.3-4.4,13.9-9.9,17.1c-2.5,1.4-4.7,1.7-6.4,1
			c-0.4-0.1-0.7-0.3-1-0.6c-0.8-0.6-1.5-1.5-1.9-2.7c-0.1-0.3-0.2-0.6-0.3-0.9c-1.5,0.9-3.4,2-5.6,3.3c0.1,1,0.3,1.9,0.6,2.7
			c0.6,1.8,1.7,3.2,2.9,4.1c0.5,0.4,1,0.7,1.6,0.9c2.7,1.1,6.2,0.7,10-1.5c7.3-4.2,13.4-13.6,15-22.4c0.3-1.4,0.4-2.9,0.4-4.2
			c0-0.1,0-0.1,0-0.2c0-1.6-0.2-3.1-0.6-4.3C211.8,164.8,210.4,164.3,208.7,164.6z"/>
		<path class="st0" d="M102.2,222L102.2,222l-0.6-0.3c-1.5-0.8-3.4-1-5.4-0.7c-1.6,0.2-3.3,0.9-5.1,1.9c-0.3,0.2-0.5,0.3-0.8,0.5
			c-8.1,5.2-14.6,16.6-14.6,26.1c0,2,0.3,3.8,0.8,5.3c0.6,1.8,1.6,3.2,2.9,4.1c0.5,0.4,1,0.7,1.6,0.9c2.7,1.1,6.2,0.7,10-1.5
			c8.2-4.7,14.9-16,15.3-25.6c0-0.3,0-0.7,0-1C106.4,227,104.8,223.7,102.2,222z M91,252c-2.4,1.4-4.7,1.7-6.4,1
			c-0.4-0.1-0.7-0.4-1-0.6c-0.8-0.6-1.5-1.5-1.9-2.7c-0.3-1-0.5-2.1-0.5-3.4c0-6.3,4.4-14,9.9-17.1c1.1-0.7,2.3-1.1,3.3-1.2
			c1.3-0.2,2.5-0.1,3.5,0.4l0.3,0.2l0,0c1.7,1.1,2.7,3.2,2.7,6.3C100.9,241.2,96.5,248.9,91,252z"/>
	</g>
	<polygon class="st0" points="298.3,106.4 298.3,109.1 283.8,116.4 287,118.1 288.4,117.3 302.9,109.5 	"/>
	<path class="st0" d="M50.6,130.2l-1.8,1L23.2,146l49.5,28.8l30.9-17.8l3.7-2.1L57.8,126L50.6,130.2z M73.2,170.2L30.3,146
		l20.3-11.9l0,1.8l8.5-4.9l40.5,23.5L73.2,170.2z"/>
	<path class="st0" d="M98.2,228.7c1.7,1.1,2.7,3.2,2.7,6.3c0,6.3-4.4,13.9-9.9,17.1c-2.4,1.4-4.7,1.7-6.4,1c-0.4-0.1-0.7-0.4-1-0.6
		c-0.8-0.6-1.5-1.5-1.9-2.7c-0.3-1-0.5-2.1-0.5-3.4c0-6.3,4.4-14,9.9-17.1c1.1-0.7,2.3-1.1,3.3-1.2c1.3-0.2,2.5-0.1,3.5,0.4
		L98.2,228.7L98.2,228.7z M95.4,238.2c0-1.3-0.4-2.3-1.2-2.8l0,0l-0.1-0.1c-0.4-0.2-0.9-0.3-1.5-0.2c-0.4,0.1-0.9,0.2-1.4,0.5
		c-2.4,1.4-4.3,4.7-4.3,7.5c0,0.6,0.1,1.1,0.2,1.5c0.2,0.5,0.5,0.9,0.8,1.2c0.1,0.1,0.3,0.2,0.5,0.3c0.8,0.3,1.7,0.2,2.8-0.4
		C93.4,244.3,95.4,240.9,95.4,238.2z"/>
	<g>
		<path class="st0" d="M218,174.7c-0.3-0.8-0.5-1.7-0.7-2.7c-0.1,0-0.2,0.1-0.2,0.1l-3.5-2.2c0,0.1,0,0.1,0,0.2
			c0,1.4-0.1,2.8-0.4,4.2l7.7,4.4C219.7,177.9,218.7,176.5,218,174.7z"/>
		<path class="st0" d="M183.8,193.2c-0.3-0.8-0.5-1.7-0.6-2.7c-1.3,0.7-2.7,1.6-4.1,2.4l7.7,4.4C185.4,196.4,184.4,195,183.8,193.2z
			"/>
		<path class="st0" d="M92.7,216.5l-2.9,1.7c-0.2,0.1-1.6,1.2-3.5,3c-0.1,0.1-0.1,0.1-0.2,0.2c-2.6,2.6-8.1,7.1-10.5,12.4
			c-5.1,11.6-5.6,17.6-5.6,18.2l-1,0.6c0.5,0.5,1,0.9,1.6,1.3l0.4,0.2l8.5,4.9c-1.3-0.9-2.3-2.4-2.9-4.1c-0.5-1.5-0.8-3.3-0.8-5.3
			c0-9.5,6.5-21,14.6-26.1c0.3-0.2,0.5-0.3,0.8-0.5c1.8-1,3.5-1.7,5.1-1.9c2.1-0.4,3.9-0.1,5.4,0.7l-8.3-4.8
			C93.1,216.7,92.9,216.6,92.7,216.5z"/>
	</g>
	<g>
		<path class="st0" d="M235.7,155.3L235.7,155.3l-0.2-0.1c-0.4-0.2-1-0.3-1.5-0.2c-0.5,0.1-0.9,0.2-1.4,0.5
			c-2.4,1.4-4.3,4.7-4.3,7.5c0,0.6,0.1,1.1,0.2,1.5c0.2,0.5,0.5,0.9,0.8,1.2c0.1,0.1,0.3,0.2,0.4,0.3c0.7,0.3,1.7,0.2,2.8-0.4
			c2.4-1.4,4.3-4.7,4.3-7.5C236.9,156.7,236.4,155.7,235.7,155.3z"/>
		<path class="st0" d="M201.4,173.8L201.4,173.8l-0.2-0.1c-0.4-0.2-1-0.3-1.5-0.2c-0.4,0.1-0.9,0.2-1.4,0.5c-1,0.6-2,1.6-2.8,2.7
			c-0.6,1.3-1.1,2.7-1.5,4.1c0,0.2,0,0.4,0,0.7c0,0.6,0.1,1.1,0.2,1.5c0.2,0.5,0.5,0.9,0.8,1.2c0.1,0.1,0.3,0.2,0.4,0.3
			c0.8,0.3,1.7,0.2,2.8-0.4c2.4-1.4,4.3-4.7,4.3-7.5C202.6,175.2,202.2,174.2,201.4,173.8z"/>
		<path class="st0" d="M107.6,200.5c-7.4,3.6-13.4,7.1-18.7,10.6c-4.9,3.4-9.1,6.5-12.8,10.3c-2.9,2.9-5.4,6.2-7.8,10.2
			c-3.4,5.9-5.3,14-6.5,20.8v0.4v3.9l7.2-4.2l1-0.6c0.1-0.6,0.5-6.6,5.6-18.2c2.3-5.3,7.8-9.9,10.5-12.4c0.1-0.1,0.1-0.1,0.2-0.2
			c1.9-1.8,3.4-2.9,3.5-3l2.9-1.7l5.6-3.2l0.5-0.3l6.4-3.7l1-0.6l3.1-1.8l0-7.1C108.8,200,108.2,200.3,107.6,200.5z"/>
		<polygon class="st0" points="99.6,154.5 59.1,131 50.6,135.9 50.6,134.1 30.3,146 73.2,170.2 		"/>
		<path class="st0" d="M94.2,235.4L94.2,235.4l-0.2-0.1c-0.4-0.2-0.9-0.3-1.5-0.2c-0.4,0.1-0.9,0.2-1.4,0.5
			c-2.4,1.4-4.3,4.7-4.3,7.5c0,0.6,0.1,1.1,0.2,1.5c0.2,0.5,0.5,0.9,0.8,1.2c0.1,0.1,0.3,0.2,0.5,0.3c0.8,0.3,1.7,0.2,2.8-0.4
			c2.4-1.4,4.3-4.7,4.3-7.5C95.4,236.8,94.9,235.9,94.2,235.4z"/>
	</g>
	<g>
		<polygon class="st0" points="287.5,128.8 287,118.1 283.8,116.4 284.5,129.3 285.6,129.9 287.6,131 287.6,131 		"/>
		<polygon class="st0" points="23.2,146 23.2,149 72.7,177.8 72.7,174.7 		"/>
	</g>
	<path class="st0" d="M68.3,180.4l-9.3,32L9.5,183.7l9.3-32L68.3,180.4z M57.4,209.4l7.9-28l-23.1-13.5l-1.9-1.1l-19.9-11.6
		l-8.2,27.9l19.7,11.5l1.9,1.1L57.4,209.4z"/>
	<g>
		<polygon class="st0" points="302.9,109.5 288.4,117.3 287,118.1 287.5,128.8 287.6,131 303.1,122.1 		"/>
		<path class="st0" d="M124.9,206.7l-0.1-15.8l-0.3-0.2l-8.9,5l0.1,19.6l-7,4l0.1,14.9c2-1.2,37.5-22.1,61.8-36.3v0v-10.9L125,212.4
			L124.9,206.7z"/>
		<path class="st0" d="M109.3,192.1v-3.5l0-3.1l-0.1-22.3v-4l0-0.1l-2.5,1.3L75,176.8l-5.4,2.8l-1.3,0.8l-9.3,32l-3.1,1.8l-1.2,6.6
			l0,7.3l0,0l7-3v27.2c1.2-6.8,3.1-14.9,6.5-20.8c2.4-4,5-7.2,7.8-10.2c3.7-3.8,7.8-6.9,12.8-10.3c5.3-3.5,11.3-7.1,18.7-10.6
			c0.6-0.3,1.1-0.5,1.7-0.8L109.3,192.1z M78.5,202l-2.4,1.3l-12.9,6.9l7.5-27.1l5.3-2.8l2.4-1.2l22.4-11.6V190L78.5,202z"/>
		<polygon class="st0" points="54.8,255.8 54.8,256.3 54.8,260.6 55,260.7 61.8,256.7 61.8,252.8 61.7,252.9 		"/>
	</g>
	<path class="st0" d="M61.8,225.2v27.2c0,0.2-0.1,0.3-0.1,0.5l-6.9,2.9l0-11l0.2,0.1l3.8-2.2l0-3.1l-2.7,1.5l-0.9,0.5l-0.4-0.3
		l0-13.2h0L61.8,225.2z"/>
	<polygon class="st0" points="59,212.4 55.9,214.2 6.4,185.5 9.5,183.7 	"/>
	<polygon class="st0" points="58.7,239.6 58.7,242.7 56.1,241.1 	"/>
	<polygon class="st0" points="58.7,242.7 54.9,244.9 54.7,244.8 54.7,241.4 55.2,241.6 56.1,241.1 	"/>
	<path class="st1" d="M54.7,244.8l0,11l-0.6,0.2L5.5,228l0-11.9L54.7,244.8z M51.9,247.6c0.1-1.1-0.9-2.6-2-3.3l-4-2.4
		c-1.2-0.7-2.2-0.4-2.3,0.7l-0.2,3.1c-0.1,1.1,0.8,2.6,2,3.3l4,2.4c1.2,0.7,2.2,0.4,2.3-0.7L51.9,247.6z M39.9,241
		c0.4,0.2,0.8,0,0.8-0.4c0-0.5-0.3-1.1-0.8-1.3L17,225.9c-0.1-0.1-0.3-0.1-0.3-0.1c-0.3,0-0.4,0.2-0.4,0.5c0,0.5,0.4,1.1,0.8,1.3
		L39.9,241z M39.3,244.2c0.4,0.2,0.8,0.1,0.8-0.4c0-0.5-0.3-1.1-0.8-1.3l-22.9-13.3c-0.1-0.1-0.3-0.1-0.3-0.1
		c-0.3,0-0.4,0.2-0.4,0.5c0,0.5,0.4,1.1,0.8,1.3L39.3,244.2z M14.8,225.7c0.1-1.1-0.8-2.6-2-3.3l-4-2.4c-1.2-0.7-2.2-0.4-2.2,0.7
		l-0.2,3.2c-0.1,1.1,0.8,2.6,2,3.3l3.9,2.4c1.2,0.7,2.2,0.4,2.3-0.7L14.8,225.7z"/>
	<polygon class="st0" points="54.7,241.4 54.7,244.8 5.4,216.1 8.4,214.4 	"/>
	<path class="st1" d="M54.7,228.1l0,13.2L8.4,214.4l-2.7-1.6l-0.8-13.3L54.7,228.1L54.7,228.1z M52.2,230c0-0.7-0.6-1.7-1.3-2.1
		l-2.5-1.5c-0.8-0.4-1.4-0.2-1.4,0.5l-0.1,2c0,0.7,0.5,1.7,1.3,2.1l2.5,1.5c0.8,0.5,1.4,0.2,1.4-0.5L52.2,230z M51.9,235.6
		c0-0.7-0.5-1.6-1.3-2.1l-2.5-1.5c-0.7-0.5-1.4-0.2-1.4,0.5l-0.1,2c0,0.7,0.5,1.6,1.3,2.1l2.5,1.5c0.8,0.5,1.4,0.3,1.5-0.4
		L51.9,235.6z M41.8,226.8c0.4,0.2,0.8,0,0.8-0.4c0-0.5-0.3-1.1-0.8-1.3l-22.9-13.3c-0.4-0.2-0.8-0.1-0.8,0.4c0,0,0,0,0,0
		c0,0.5,0.3,1.1,0.8,1.3L41.8,226.8z M41.3,229.9c0.4,0.2,0.8,0.1,0.8-0.4c0-0.5-0.3-1.1-0.8-1.3l-22.9-13.3c-0.4-0.2-0.8,0-0.8,0.4
		c0,0,0,0,0,0c0,0.5,0.3,1.1,0.8,1.3L41.3,229.9z M12.3,206.5c0-0.7-0.6-1.6-1.3-2.1l-2.6-1.5c-0.8-0.4-1.4-0.2-1.4,0.5l-0.1,2
		c0,0.7,0.6,1.6,1.3,2.1l2.6,1.5c0.8,0.4,1.4,0.2,1.4-0.5L12.3,206.5z M12.2,212.1c0-0.7-0.6-1.6-1.3-2.1l-2.6-1.5
		c-0.8-0.4-1.4-0.2-1.4,0.5l-0.1,2c0,0.7,0.6,1.7,1.3,2.1l2.6,1.5c0.8,0.4,1.4,0.2,1.4-0.5L12.2,212.1z"/>
	<g>
		<polygon class="st0" points="76.2,180.3 76.2,203.2 78.5,202 78.5,179.1 		"/>
		<polygon class="st0" points="18.8,151.6 68.3,180.4 69.6,179.6 72.7,177.8 23.2,149 		"/>
		<path class="st0" d="M61.8,252.8v-0.4C61.7,252.6,61.7,252.7,61.8,252.8L61.8,252.8z"/>
		<polygon class="st0" points="4.7,195.1 54.1,223.9 54.7,220.8 55.9,214.2 6.4,185.5 		"/>
		<polygon class="st0" points="5.5,228 5.5,231.9 54.8,260.6 54.8,256.3 54.8,255.8 54.2,256 		"/>
		<polygon class="st0" points="54.7,228.1 54.7,228.1 54.7,228.1 		"/>
	</g>
	<polygon class="st0" points="54.7,220.8 54.7,228.1 4.9,199.6 4.7,195.1 54.1,223.9 	"/>
	<path class="st0" d="M50.9,227.9c0.8,0.4,1.4,1.4,1.3,2.1l-0.1,2c-0.1,0.7-0.7,0.9-1.4,0.5l-2.5-1.5c-0.8-0.4-1.3-1.4-1.3-2.1
		l0.1-2c0-0.7,0.7-0.9,1.4-0.5L50.9,227.9z"/>
	<path class="st0" d="M49.9,244.3c1.2,0.7,2.1,2.2,2,3.3l-0.2,3.2c-0.1,1.1-1.1,1.4-2.3,0.7l-4-2.4c-1.2-0.7-2.1-2.2-2-3.3l0.2-3.1
		c0.1-1.1,1.1-1.4,2.3-0.7L49.9,244.3z"/>
	<path class="st0" d="M50.6,233.5c0.8,0.5,1.3,1.4,1.3,2.1l-0.1,2c-0.1,0.7-0.7,0.9-1.5,0.4l-2.5-1.5c-0.7-0.5-1.3-1.4-1.3-2.1
		l0.1-2c0-0.7,0.7-0.9,1.4-0.5L50.6,233.5z"/>
	<polygon class="st0" points="42.2,167.9 34,195.5 33.9,195.7 31.9,194.6 32.1,194.3 40.3,166.8 	"/>
	<g>
		<polygon class="st0" points="42.2,167.9 34,195.5 33.9,195.7 57.4,209.4 65.3,181.3 		"/>
		<polygon class="st0" points="20.4,155.2 12.2,183.1 31.9,194.6 32.1,194.3 40.3,166.8 		"/>
	</g>
	<path class="st0" d="M12.7,222.4c1.2,0.7,2.1,2.2,2,3.3l-0.2,3.1c-0.1,1.1-1.1,1.4-2.3,0.7l-3.9-2.4c-1.2-0.7-2.1-2.2-2-3.3
		l0.2-3.2c0-1.1,1.1-1.4,2.2-0.7L12.7,222.4z"/>
	<path class="st0" d="M11,204.4c0.8,0.4,1.4,1.4,1.3,2.1l-0.1,2c0,0.7-0.7,0.9-1.4,0.5l-2.6-1.5c-0.8-0.4-1.4-1.4-1.3-2.1l0.1-2
		c0-0.7,0.7-0.9,1.4-0.5L11,204.4z"/>
	<path class="st0" d="M10.8,210c0.8,0.4,1.4,1.4,1.3,2.1l-0.1,2c0,0.7-0.7,0.9-1.4,0.5l-2.6-1.5c-0.8-0.4-1.4-1.4-1.3-2.1l0.1-2
		c0-0.7,0.7-0.9,1.4-0.5L10.8,210z"/>
	<line class="st2" x1="334.4" y1="89.8" x2="381.6" y2="63.6"/>
	<line class="st2" x1="314.3" y1="101.3" x2="329.5" y2="92.8"/>
	<line class="st2" x1="314.3" y1="69.3" x2="361.5" y2="43.1"/>
	<line class="st2" x1="306.4" y1="81.3" x2="388.5" y2="35.6"/>
	<line class="st2" x1="365.6" y1="40" x2="381.6" y2="31.2"/>
	<line class="st2" x1="308.8" y1="56.2" x2="317.9" y2="51.2"/>
	<line class="st2" x1="302.9" y1="67.4" x2="409.6" y2="6.1"/>
	<line class="st2" x1="306.5" y1="98.1" x2="413.2" y2="36.8"/>
	<line class="st2" x1="331.8" y1="43.1" x2="394.5" y2="7"/>
</g>
</svg>
